PathFileType	4	(X/Y/Z)	/Users/itak/Documents/Research/Walk-IL/dataset/trc/00474_00167.trc
DataRate	CameraRate	NumFrames	NumMarkers	Units	OrigDataRate	OrigDataStartFrame	OrigNumFrames
100.000000	100.000000	4	53	mm	100.000000	0	564
Frame#	Time	RPSI			LPSI			L3			STRN			T10			C7			CLAV			RBAK			LBAK			LSHO			LUPA			LAEL			LAOL			LWTS			LWPS			LFRA			LIFD			LHPS			LHTS			RSHO			RUPA			RAEL			RAOL			RWTS			RWPS			RFRA			RIFD			RHTS			RHPS			RBHD			LFHD			RFHD			LBHD			LHIP			RHIP			RASI			LASI			LKNE			LTHI			LANK			LTIP			LTOE			LMT1			LMT5			LHEE			RKNE			RTHI			RANK			RTIP			RTOE			RMT1			RMT5			RHEE			
		X1	Y1	Z1	X2	Y2	Z2	X3	Y3	Z3	X4	Y4	Z4	X5	Y5	Z5	X6	Y6	Z6	X7	Y7	Z7	X8	Y8	Z8	X9	Y9	Z9	X10	Y10	Z10	X11	Y11	Z11	X12	Y12	Z12	X13	Y13	Z13	X14	Y14	Z14	X15	Y15	Z15	X16	Y16	Z16	X17	Y17	Z17	X18	Y18	Z18	X19	Y19	Z19	X20	Y20	Z20	X21	Y21	Z21	X22	Y22	Z22	X23	Y23	Z23	X24	Y24	Z24	X25	Y25	Z25	X26	Y26	Z26	X27	Y27	Z27	X28	Y28	Z28	X29	Y29	Z29	X30	Y30	Z30	X31	Y31	Z31	X32	Y32	Z32	X33	Y33	Z33	X34	Y34	Z34	X35	Y35	Z35	X36	Y36	Z36	X37	Y37	Z37	X38	Y38	Z38	X39	Y39	Z39	X40	Y40	Z40	X41	Y41	Z41	X42	Y42	Z42	X43	Y43	Z43	X44	Y44	Z44	X45	Y45	Z45	X46	Y46	Z46	X47	Y47	Z47	X48	Y48	Z48	X49	Y49	Z49	X50	Y50	Z50	X51	Y51	Z51	X52	Y52	Z52	X53	Y53	Z53	

1	0	-1324.947387695312	962.337890625	-462.6375732421875	-1294.627807617188	959.7483520507812	-599.7606201171875	-1302.542114257812	1048.322875976562	-516.14111328125	-1046.045532226562	1253.961791992188	-484.8070068359375	-1325.906127929688	1172.611938476562	-524.1072998046875	-1270.533813476562	1443.213989257812	-509.7206420898438	-1085.231567382812	1365.48583984375	-497.2104187011719	-1345.569091796875	1324.690795898438	-423.6015930175781	-1290.749755859375	1392.379516601562	-610.8416748046875	-1179.05224609375	1413.390258789062	-676.1546020507812	-1178.184204101562	1294.300048828125	-772.2820434570312	-1155.0048828125	1080.151611328125	-806.147705078125	-1240.120849609375	1065.4619140625	-749.0938110351562	-1074.126220703125	882.4293212890625	-754.2972412109375	-1114.89599609375	863.7822265625	-813.8973388671875	-1131.77587890625	993.0458374023438	-813.8900756835938	-1060.640869140625	723.8385009765625	-760.6280517578125	-1103.84716796875	786.4324340820312	-812.0062866210938	-1053.368774414062	798.6050415039062	-760.8092651367188	-1226.673583984375	1419.315185546875	-342.0240478515625	-1253.500610351562	1360.47216796875	-267.6589660644531	-1251.191040039062	1076.101928710938	-201.3468780517578	-1288.4404296875	1054.133178710938	-253.5960693359375	-1128.589599609375	878.195068359375	-202.4926910400391	-1208.324096679688	861.992919921875	-165.3581085205078	-1247.284545898438	1018.571411132812	-188.1035461425781	-1120.791137695312	723.948486328125	-173.1586608886719	-1111.968139648438	783.5001831054688	-176.1222076416016	-1187.365478515625	778.6514282226562	-152.4482421875	-1218.871948242188	1640.545043945312	-418.2045288085938	-1045.6923828125	1665.450927734375	-530.0935668945312	-1082.860595703125	1662.4443359375	-404.5437927246094	-1183.82421875	1648.54736328125	-592.1156616210938	-1141.964721679688	861.9080810546875	-691.6878662109375	-1243.004638671875	861.0098266601562	-303.4637451171875	-1123.997192382812	899.3247680664062	-340.1498413085938	-1059.949829101562	894.4287719726562	-591.8838500976562	-1178.72265625	447.0447692871094	-672.7596435546875	-1137.065795898438	596.2803344726562	-681.3963012695312	-1263.9111328125	41.60550308227539	-690.9734497070312	-1193.182861328125	302.35791015625	-693.7664794921875	-1042.158447265625	42.93288040161133	-593.5353393554688	-1119.588256835938	51.72359848022461	-575.8712768554688	-1109.245239257812	44.85481643676758	-689.2703857421875	-1316.268676757812	47.55477523803711	-633.2384643554688	-1233.231689453125	470.1686401367188	-313.9152526855469	-1205.071044921875	728.5537719726562	-280.0640258789062	-1309.000366210938	48.31340789794922	-304.1261901855469	-1242.298461914062	328.0138244628906	-299.4468994140625	-1090.0498046875	47.23177337646484	-333.057373046875	-1151.533935546875	49.69131088256836	-375.7063903808594	-1177.693359375	49.95633697509766	-270.1554565429688	-1370.505249023438	40.55854797363281	-352.966552734375	
2	0.01	-1324.9970703125	962.34423828125	-462.590087890625	-1294.7158203125	959.7443237304688	-599.724609375	-1302.619873046875	1048.324829101562	-516.0703125	-1046.100952148438	1253.976196289062	-484.7916870117188	-1325.991333007812	1172.606201171875	-524.080078125	-1270.609130859375	1443.221557617188	-509.6636962890625	-1085.315185546875	1365.51171875	-497.180908203125	-1345.6494140625	1324.674194335938	-423.5920104980469	-1290.809204101562	1392.405395507812	-610.8412475585938	-1179.084716796875	1413.434936523438	-676.1143188476562	-1178.235595703125	1294.376342773438	-772.251953125	-1154.998657226562	1080.214233398438	-806.1318359375	-1240.106201171875	1065.513061523438	-749.1015625	-1073.9951171875	882.5361328125	-754.25	-1114.819946289062	863.8480834960938	-813.8624267578125	-1131.703125	993.1228637695312	-813.8534545898438	-1060.549072265625	723.9149169921875	-760.6023559570312	-1103.730834960938	786.4185180664062	-811.9545288085938	-1053.376831054688	798.648193359375	-760.7756958007812	-1226.779663085938	1419.322998046875	-342.0066833496094	-1253.627563476562	1360.478759765625	-267.64697265625	-1251.324829101562	1076.172119140625	-201.2011108398438	-1288.416381835938	1054.111328125	-253.5020446777344	-1128.531005859375	878.4437255859375	-201.7237091064453	-1208.317993164062	862.166259765625	-164.8481750488281	-1247.394287109375	1018.666198730469	-187.8985137939453	-1120.531005859375	724.2496948242188	-172.2180328369141	-1111.8193359375	783.82080078125	-175.2403259277344	-1187.226196289062	778.8521118164062	-151.8837585449219	-1218.863891601562	1640.561157226562	-418.0781860351562	-1045.709106445312	1665.40380859375	-529.9603881835938	-1082.882446289062	1662.39794921875	-404.4505920410156	-1183.818725585938	1648.5849609375	-592.0552978515625	-1142.055908203125	861.9121704101562	-691.68212890625	-1242.992919921875	861.001220703125	-303.4132690429688	-1124.0048828125	899.3216552734375	-340.1509704589844	-1059.97607421875	894.4480590820312	-591.8917846679688	-1178.742309570312	447.0474243164062	-672.7534790039062	-1137.1181640625	596.3093872070312	-681.40869140625	-1263.910888671875	41.62028503417969	-690.9500122070312	-1193.2080078125	302.3604431152344	-693.7616577148438	-1042.169311523438	42.93215560913086	-593.5460815429688	-1119.588500976562	51.72399520874023	-575.8711547851562	-1109.251098632812	44.85531234741211	-689.2659912109375	-1316.267700195312	47.55308151245117	-633.2368774414062	-1233.217163085938	470.163818359375	-313.9049072265625	-1205.072631835938	728.5620727539062	-280.0374145507812	-1309.009033203125	48.31703948974609	-304.11865234375	-1242.288330078125	328.0124206542969	-299.4438781738281	-1090.048217773438	47.23146820068359	-333.0581665039062	-1151.531982421875	49.69120788574219	-375.7052612304688	-1177.682739257812	49.95103073120117	-270.1536865234375	-1370.505615234375	40.55634307861328	-352.9650573730469	
3	0.02	-1325.060913085938	962.3526000976562	-462.5323486328125	-1294.8271484375	959.73974609375	-599.6774291992188	-1302.7197265625	1048.328735351562	-515.9779663085938	-1046.168090820312	1253.994262695312	-484.7756042480469	-1326.099487304688	1172.597900390625	-524.0527954101562	-1270.704467773438	1443.229858398438	-509.5968933105469	-1085.40966796875	1365.538696289062	-497.1477355957031	-1345.750732421875	1324.652954101562	-423.5776672363281	-1290.886962890625	1392.437255859375	-610.8363037109375	-1179.127197265625	1413.498046875	-676.0638427734375	-1178.307983398438	1294.476440429688	-772.2195434570312	-1154.9970703125	1080.29443359375	-806.1165771484375	-1240.094482421875	1065.575317382812	-749.1141357421875	-1073.856201171875	882.664306640625	-754.1907958984375	-1114.720092773438	863.9259033203125	-813.814208984375	-1131.617065429688	993.2227783203125	-813.8082885742188	-1060.438110351562	724.0130615234375	-760.5617065429688	-1103.59619140625	786.4124145507812	-811.8956909179688	-1053.387939453125	798.6964111328125	-760.7349243164062	-1226.905029296875	1419.328491210938	-341.9797058105469	-1253.772094726562	1360.485473632812	-267.6270751953125	-1251.466918945312	1076.258544921875	-201.0047607421875	-1288.384155273438	1054.085815429688	-253.3578796386719	-1128.4404296875	878.7464599609375	-200.7965698242188	-1208.292236328125	862.3825073242188	-164.2054748535156	-1247.510986328125	1018.784606933594	-187.6263427734375	-1120.203002929688	724.6200561523438	-171.0827789306641	-1111.617309570312	784.2078857421875	-174.1674194335938	-1187.043579101562	779.1098022460938	-151.1647491455078	-1218.855590820312	1640.578002929688	-417.9240417480469	-1045.739624023438	1665.34375	-529.7854614257812	-1082.903930664062	1662.337890625	-404.3365783691406	-1183.820068359375	1648.636108398438	-591.9768676757812	-1142.171630859375	861.9153442382812	-691.6735229492188	-1242.982543945312	860.9921264648438	-303.3577270507812	-1124.014526367188	899.3206787109375	-340.1530456542969	-1060.016845703125	894.4713134765625	-591.902587890625	-1178.766967773438	447.0493774414062	-672.7471313476562	-1137.178833007812	596.341552734375	-681.4224853515625	-1263.911499023438	41.63651275634766	-690.924072265625	-1193.235961914062	302.3654479980469	-693.7566528320312	-1042.179077148438	42.93244552612305	-593.5565795898438	-1119.587646484375	51.72454833984375	-575.8712158203125	-1109.259887695312	44.85652160644531	-689.2628173828125	-1316.266357421875	47.55096817016602	-633.2350463867188	-1233.200317382812	470.1580200195312	-313.8907775878906	-1205.070190429688	728.567626953125	-280.0059204101562	-1309.016845703125	48.32024765014648	-304.1102600097656	-1242.276000976562	328.0103759765625	-299.440185546875	-1090.046875	47.23112869262695	-333.0588073730469	-1151.530395507812	49.69084930419922	-375.7041015625	-1177.669189453125	49.94569778442383	-270.1549987792969	-1370.506225585938	40.55427932739258	-352.963134765625	
4	0.03	-1325.135986328125	962.3606567382812	-462.4656982421875	-1294.956665039062	959.7349853515625	-599.6214599609375	-1302.837646484375	1048.3349609375	-515.8687133789062	-1046.243530273438	1254.015747070312	-484.760986328125	-1326.2255859375	1172.586669921875	-524.029296875	-1270.816528320312	1443.238037109375	-509.5247192382812	-1085.5078125	1365.5634765625	-497.1140747070312	-1345.868530273438	1324.627807617188	-423.5575561523438	-1290.982055664062	1392.472778320312	-610.82421875	-1179.179931640625	1413.578369140625	-676.0049438476562	-1178.401489257812	1294.596801757812	-772.188232421875	-1155.003540039062	1080.389404296875	-806.104248046875	-1240.089233398438	1065.64453125	-749.1321411132812	-1073.723022460938	882.8048706054688	-754.1224975585938	-1114.600463867188	864.0106811523438	-813.7543334960938	-1131.524291992188	993.3417358398438	-813.757080078125	-1060.312133789062	724.1301879882812	-760.50341796875	-1103.451782226562	786.4210205078125	-811.8340454101562	-1053.40185546875	798.7445678710938	-760.6904907226562	-1227.040649414062	1419.32958984375	-341.9432067871094	-1253.921752929688	1360.49169921875	-267.5982666015625	-1251.599975585938	1076.356201171875	-200.7596740722656	-1288.343872070312	1054.058471679688	-253.1579284667969	-1128.3115234375	879.0859985351562	-199.7696533203125	-1208.23681640625	862.6325073242188	-163.4601287841797	-1247.619506835938	1018.921081542969	-187.2917327880859	-1119.81884765625	725.03759765625	-169.8205871582031	-1111.361694335938	784.6361694335938	-172.9690856933594	-1186.820190429688	779.4131469726562	-150.3196411132812	-1218.848022460938	1640.591064453125	-417.7515563964844	-1045.785034179688	1665.273193359375	-529.5740356445312	-1082.92041015625	1662.265991210938	-404.2072448730469	-1183.833984375	1648.699462890625	-591.880859375	-1142.30615234375	861.9165649414062	-691.6614379882812	-1242.9755859375	860.9835205078125	-303.3013916015625	-1124.026489257812	899.3228759765625	-340.1563720703125	-1060.072387695312	894.4977416992188	-591.9161987304688	-1178.795776367188	447.0498046875	-672.7416381835938	-1137.243408203125	596.3746948242188	-681.4361572265625	-1263.91357421875	41.65312194824219	-690.8980712890625	-1193.264282226562	302.3728637695312	-693.751953125	-1042.1865234375	42.93393707275391	-593.5655517578125	-1119.58544921875	51.72526931762695	-575.8710327148438	-1109.271240234375	44.8584098815918	-689.261474609375	-1316.26513671875	47.54851913452148	-633.2332763671875	-1233.182495117188	470.1517333984375	-313.8725891113281	-1205.062622070312	728.5685424804688	-279.9719543457031	-1309.022583007812	48.32241058349609	-304.1018676757812	-1242.261962890625	328.0077209472656	-299.43603515625	-1090.046142578125	47.2308235168457	-333.0591430664062	-1151.529296875	49.69007110595703	-375.7032775878906	-1177.65625	49.94123458862305	-270.1572265625	-1370.507080078125	40.55226135253906	-352.9609069824219	
